{
  "accessors": [
    {
      "bufferView": 2,
      "componentType": 5126,
      "count": 1165,
      "max": [
        -2.0319342613220215,
        6.785708427429199,
        4.790966033935547
      ],
      "min": [
        -5.506351470947266,
        0.7741765975952148,
        -4.831098556518555
      ],
      "type": "VEC3"
    },
    {
      "bufferView": 2,
      "byteOffset": 13980,
      "componentType": 5126,
      "count": 1165,
      "max": [
        0.9997684359550476,
        0.9933884143829346,
        0.9991430640220642
      ],
      "min": [
        -0.9996857643127441,
        -0.9946610331535339,
        -0.9849409461021423
      ],
      "type": "VEC3"
    },
    {
      "bufferView": 1,
      "componentType": 5126,
      "count": 1165,
      "max": [
        0.8575003147125244,
        0.9533635377883911
      ],
      "min": [
        0.045361340045928955,
        0.09102237969636917
      ],
      "type": "VEC2"
    },
    {
      "bufferView": 0,
      "componentType": 5125,
      "count": 5934,
      "type": "SCALAR"
    }
  ],
  "asset": {
    "extras": {
      "author": "Sion (https://sketchfab.com/mrSpeedle)",
      "license": "CC-BY-4.0 (http://creativecommons.org/licenses/by/4.0/)",
      "source": "https://sketchfab.com/3d-models/soybean-0d4505aac3a44a3eb921d65e82c0922d",
      "title": "Soybean"
    },
    "generator": "Sketchfab-16.33.0",
    "version": "2.0"
  },
  "bufferViews": [
    {
      "buffer": 0,
      "byteLength": 23736,
      "name": "floatBufferViews",
      "target": 34963
    },
    {
      "buffer": 0,
      "byteLength": 9320,
      "byteOffset": 23736,
      "byteStride": 8,
      "name": "floatBufferViews",
      "target": 34962
    },
    {
      "buffer": 0,
      "byteLength": 27960,
      "byteOffset": 33056,
      "byteStride": 12,
      "name": "floatBufferViews",
      "target": 34962
    }
  ],
  "buffers": [
    {
      "byteLength": 61016,
      "uri": "scene.bin"
    }
  ],
  "materials": [
    {
      "doubleSided": true,
      "name": "bean_lifecyclePlantsAndSeeds",
      "pbrMetallicRoughness": {
        "metallicFactor": 0.0
      }
    }
  ],
  "meshes": [
    {
      "name": "pSphere3_bean_lifecycle:PlantsAndSeeds_0",
      "primitives": [
        {
          "attributes": {
            "NORMAL": 1,
            "POSITION": 0,
            "TEXCOORD_0": 2
          },
          "indices": 3,
          "material": 0,
          "mode": 4
        }
      ]
    }
  ],
  "nodes": [
    {
      "children": [
        1
      ],
      "matrix": [
        1.0,
        0.0,
        0.0,
        0.0,
        0.0,
        2.220446049250313e-16,
        -1.0,
        0.0,
        0.0,
        1.0,
        2.220446049250313e-16,
        0.0,
        0.0,
        0.0,
        0.0,
        1.0
      ],
      "name": "Sketchfab_model"
    },
    {
      "children": [
        2
      ],
      "matrix": [
        0.009999999776482582,
        0.0,
        0.0,
        0.0,
        0.0,
        0.0,
        0.009999999776482582,
        0.0,
        0.0,
        -0.009999999776482582,
        0.0,
        0.0,
        0.0,
        0.0,
        0.0,
        1.0
      ],
      "name": "baf70a9da5f748ae9891f70acfdc09d7.fbx"
    },
    {
      "children": [
        3
      ],
      "name": "RootNode"
    },
    {
      "children": [
        4
      ],
      "name": "SoyBeans"
    },
    {
      "children": [
        5
      ],
      "matrix": [
        1.0,
        0.0,
        0.0,
        0.0,
        0.0,
        1.0,
        0.0,
        0.0,
        0.0,
        0.0,
        1.0,
        0.0,
        3.7691428661346436,
        -3.779942512512207,
        0.020066261291503906,
        1.0
      ],
      "name": "pSphere3"
    },
    {
      "mesh": 0,
      "name": "pSphere3_bean_lifecycle:PlantsAndSeeds_0"
    }
  ],
  "scene": 0,
  "scenes": [
    {
      "name": "Sketchfab_Scene",
      "nodes": [
        0
      ]
    }
  ]
}
