{
  "accessors": [
    {
      "bufferView": 2,
      "componentType": 5126,
      "count": 4,
      "max": [
        0.5849412679672241,
        0.7323703765869141,
        0.0
      ],
      "min": [
        -0.5849412679672241,
        -0.7323703765869141,
        0.0
      ],
      "type": "VEC3"
    },
    {
      "bufferView": 2,
      "byteOffset": 48,
      "componentType": 5126,
      "count": 4,
      "max": [
        0.0,
        0.0,
        1.0
      ],
      "min": [
        0.0,
        0.0,
        1.0
      ],
      "type": "VEC3"
    },
    {
      "bufferView": 1,
      "componentType": 5126,
      "count": 4,
      "max": [
        0.7636731863021851,
        0.38158732652664185
      ],
      "min": [
        0.5467385053634644,
        0.3234789967536926
      ],
      "type": "VEC2"
    },
    {
      "bufferView": 0,
      "componentType": 5125,
      "count": 6,
      "type": "SCALAR"
    },
    {
      "bufferView": 2,
      "byteOffset": 96,
      "componentType": 5126,
      "count": 4,
      "max": [
        0.5849412679672241,
        0.7323703765869141,
        0.0
      ],
      "min": [
        -0.5849412679672241,
        -0.7323703765869141,
        0.0
      ],
      "type": "VEC3"
    },
    {
      "bufferView": 2,
      "byteOffset": 144,
      "componentType": 5126,
      "count": 4,
      "max": [
        0.0,
        0.0,
        1.0
      ],
      "min": [
        0.0,
        0.0,
        1.0
      ],
      "type": "VEC3"
    },
    {
      "bufferView": 1,
      "byteOffset": 32,
      "componentType": 5126,
      "count": 4,
      "max": [
        0.7684293985366821,
        0.3828454911708832
      ],
      "min": [
        0.7103210687637329,
        0.1406102180480957
      ],
      "type": "VEC2"
    },
    {
      "bufferView": 0,
      "byteOffset": 24,
      "componentType": 5125,
      "count": 6,
      "type": "SCALAR"
    },
    {
      "bufferView": 2,
      "byteOffset": 192,
      "componentType": 5126,
      "count": 4,
      "max": [
        0.5849412679672241,
        0.7323703765869141,
        0.0
      ],
      "min": [
        -0.5849412679672241,
        -0.7323703765869141,
        0.0
      ],
      "type": "VEC3"
    },
    {
      "bufferView": 2,
      "byteOffset": 240,
      "componentType": 5126,
      "count": 4,
      "max": [
        0.0,
        0.0,
        1.0
      ],
      "min": [
        0.0,
        0.0,
        1.0
      ],
      "type": "VEC3"
    },
    {
      "bufferView": 1,
      "byteOffset": 64,
      "componentType": 5126,
      "count": 4,
      "max": [
        0.6017833352088928,
        0.38284552097320557
      ],
      "min": [
        0.5436750054359436,
        0.1406102478504181
      ],
      "type": "VEC2"
    },
    {
      "bufferView": 0,
      "byteOffset": 48,
      "componentType": 5125,
      "count": 6,
      "type": "SCALAR"
    },
    {
      "bufferView": 2,
      "byteOffset": 288,
      "componentType": 5126,
      "count": 86,
      "max": [
        0.07098457962274551,
        0.5138999223709106,
        0.8456611633300781
      ],
      "min": [
        -0.07098457962274551,
        -1.254638671875,
        -2.7126872539520264
      ],
      "type": "VEC3"
    },
    {
      "bufferView": 2,
      "byteOffset": 1320,
      "componentType": 5126,
      "count": 86,
      "max": [
        0.9999439716339111,
        0.9999735355377197,
        1.0
      ],
      "min": [
        -0.9999439716339111,
        -1.0,
        -1.0
      ],
      "type": "VEC3"
    },
    {
      "bufferView": 1,
      "byteOffset": 96,
      "componentType": 5126,
      "count": 86,
      "max": [
        0.9920365810394287,
        0.9942929744720459
      ],
      "min": [
        0.019467487931251526,
        0.00430207559838891
      ],
      "type": "VEC2"
    },
    {
      "bufferView": 0,
      "byteOffset": 72,
      "componentType": 5125,
      "count": 132,
      "type": "SCALAR"
    },
    {
      "bufferView": 2,
      "byteOffset": 2352,
      "componentType": 5126,
      "count": 86,
      "max": [
        0.07098457962274551,
        0.5138999223709106,
        0.8456611633300781
      ],
      "min": [
        -0.07098457962274551,
        -1.254638671875,
        -2.7126872539520264
      ],
      "type": "VEC3"
    },
    {
      "bufferView": 2,
      "byteOffset": 3384,
      "componentType": 5126,
      "count": 86,
      "max": [
        0.9999439716339111,
        0.9999735355377197,
        1.0
      ],
      "min": [
        -0.9999439716339111,
        -1.0,
        -1.0
      ],
      "type": "VEC3"
    },
    {
      "bufferView": 1,
      "byteOffset": 784,
      "componentType": 5126,
      "count": 86,
      "max": [
        0.9920365810394287,
        0.9942929744720459
      ],
      "min": [
        0.019467487931251526,
        0.00430207559838891
      ],
      "type": "VEC2"
    },
    {
      "bufferView": 0,
      "byteOffset": 600,
      "componentType": 5125,
      "count": 132,
      "type": "SCALAR"
    },
    {
      "bufferView": 2,
      "byteOffset": 4416,
      "componentType": 5126,
      "count": 428,
      "max": [
        0.7549649477005005,
        0.5020342469215393,
        0.20326517522335052
      ],
      "min": [
        -0.18002961575984955,
        -0.5241824984550476,
        -0.9834389090538025
      ],
      "type": "VEC3"
    },
    {
      "bufferView": 2,
      "byteOffset": 9552,
      "componentType": 5126,
      "count": 428,
      "max": [
        0.9825534224510193,
        0.9984087347984314,
        0.9974138736724854
      ],
      "min": [
        -0.9939767122268677,
        -0.997989296913147,
        -0.9960963129997253
      ],
      "type": "VEC3"
    },
    {
      "bufferView": 1,
      "byteOffset": 1472,
      "componentType": 5126,
      "count": 428,
      "max": [
        0.9998683929443359,
        0.9998912811279297
      ],
      "min": [
        0.00010869211837416515,
        0.00010869211837416515
      ],
      "type": "VEC2"
    },
    {
      "bufferView": 0,
      "byteOffset": 1128,
      "componentType": 5125,
      "count": 576,
      "type": "SCALAR"
    },
    {
      "bufferView": 2,
      "byteOffset": 14688,
      "componentType": 5126,
      "count": 259,
      "max": [
        2.9120845794677734,
        2.19309663772583,
        0.3369499444961548
      ],
      "min": [
        -2.8980507850646973,
        -2.2020130157470703,
        -0.3369499444961548
      ],
      "type": "VEC3"
    },
    {
      "bufferView": 2,
      "byteOffset": 17796,
      "componentType": 5126,
      "count": 259,
      "max": [
        1.0,
        1.0,
        1.0
      ],
      "min": [
        -1.0,
        -1.0,
        0.0
      ],
      "type": "VEC3"
    },
    {
      "bufferView": 1,
      "byteOffset": 4896,
      "componentType": 5126,
      "count": 259,
      "max": [
        0.7695914506912231,
        0.3829399049282074
      ],
      "min": [
        0.5436723232269287,
        0.1403888761997223
      ],
      "type": "VEC2"
    },
    {
      "bufferView": 0,
      "byteOffset": 3432,
      "componentType": 5125,
      "count": 387,
      "type": "SCALAR"
    },
    {
      "bufferView": 2,
      "byteOffset": 20904,
      "componentType": 5126,
      "count": 2292,
      "max": [
        7.139588832855225,
        2.7103710174560547,
        1.529617190361023
      ],
      "min": [
        -4.4400434494018555,
        -2.422353744506836,
        -0.6999445557594299
      ],
      "type": "VEC3"
    },
    {
      "bufferView": 2,
      "byteOffset": 48408,
      "componentType": 5126,
      "count": 2292,
      "max": [
        1.0,
        1.0,
        1.0
      ],
      "min": [
        -1.0,
        -1.0,
        -0.775715172290802
      ],
      "type": "VEC3"
    },
    {
      "bufferView": 1,
      "byteOffset": 6968,
      "componentType": 5126,
      "count": 2292,
      "max": [
        0.9956256747245789,
        0.9932658076286316
      ],
      "min": [
        0.004478424787521362,
        0.004759147763252258
      ],
      "type": "VEC2"
    },
    {
      "bufferView": 0,
      "byteOffset": 4980,
      "componentType": 5125,
      "count": 3804,
      "type": "SCALAR"
    }
  ],
  "asset": {
    "extras": {
      "author": "RacKrab (https://sketchfab.com/RacKrab)",
      "license": "CC-BY-4.0 (http://creativecommons.org/licenses/by/4.0/)",
      "source": "https://sketchfab.com/3d-models/wheat-field-low-poly-91bf670848e24634813b27948454f371",
      "title": "Wheat field low poly"
    },
    "generator": "Sketchfab-12.68.0",
    "version": "2.0"
  },
  "bufferViews": [
    {
      "buffer": 0,
      "byteLength": 20196,
      "name": "floatBufferViews",
      "target": 34963
    },
    {
      "buffer": 0,
      "byteLength": 25304,
      "byteOffset": 20196,
      "byteStride": 8,
      "name": "floatBufferViews",
      "target": 34962
    },
    {
      "buffer": 0,
      "byteLength": 75912,
      "byteOffset": 45500,
      "byteStride": 12,
      "name": "floatBufferViews",
      "target": 34962
    }
  ],
  "buffers": [
    {
      "byteLength": 121412,
      "uri": "scene.bin"
    }
  ],
  "images": [
    {
      "uri": "textures/Material.001_baseColor.png"
    },
    {
      "uri": "textures/Material_baseColor.png"
    },
    {
      "uri": "textures/Material.007_baseColor.png"
    }
  ],
  "materials": [
    {
      "doubleSided": true,
      "name": "Material.001",
      "pbrMetallicRoughness": {
        "baseColorTexture": {
          "index": 0
        },
        "metallicFactor": 0.0,
        "roughnessFactor": 0.8239417257461427
      }
    },
    {
      "doubleSided": true,
      "name": "Material",
      "pbrMetallicRoughness": {
        "baseColorTexture": {
          "index": 1
        },
        "metallicFactor": 0.0,
        "roughnessFactor": 0.8239417257461427
      }
    },
    {
      "doubleSided": true,
      "name": "Material.007",
      "pbrMetallicRoughness": {
        "baseColorTexture": {
          "index": 2
        },
        "metallicFactor": 0.0,
        "roughnessFactor": 0.8239417257461427
      }
    }
  ],
  "meshes": [
    {
      "name": "Cube.008_Material.001_0",
      "primitives": [
        {
          "attributes": {
            "NORMAL": 1,
            "POSITION": 0,
            "TEXCOORD_0": 2
          },
          "indices": 3,
          "material": 0,
          "mode": 4
        }
      ]
    },
    {
      "name": "Cube.007_Material.001_0",
      "primitives": [
        {
          "attributes": {
            "NORMAL": 5,
            "POSITION": 4,
            "TEXCOORD_0": 6
          },
          "indices": 7,
          "material": 0,
          "mode": 4
        }
      ]
    },
    {
      "name": "Cube.004_Material.001_0",
      "primitives": [
        {
          "attributes": {
            "NORMAL": 9,
            "POSITION": 8,
            "TEXCOORD_0": 10
          },
          "indices": 11,
          "material": 0,
          "mode": 4
        }
      ]
    },
    {
      "name": "Cube.011_Material_0",
      "primitives": [
        {
          "attributes": {
            "NORMAL": 13,
            "POSITION": 12,
            "TEXCOORD_0": 14
          },
          "indices": 15,
          "material": 1,
          "mode": 4
        }
      ]
    },
    {
      "name": "Cube.010_Material_0",
      "primitives": [
        {
          "attributes": {
            "NORMAL": 17,
            "POSITION": 16,
            "TEXCOORD_0": 18
          },
          "indices": 19,
          "material": 1,
          "mode": 4
        }
      ]
    },
    {
      "name": "Circle.000_Material.007_0",
      "primitives": [
        {
          "attributes": {
            "NORMAL": 21,
            "POSITION": 20,
            "TEXCOORD_0": 22
          },
          "indices": 23,
          "material": 2,
          "mode": 4
        }
      ]
    },
    {
      "name": "Cube.036_Material.001_0",
      "primitives": [
        {
          "attributes": {
            "NORMAL": 25,
            "POSITION": 24,
            "TEXCOORD_0": 26
          },
          "indices": 27,
          "material": 0,
          "mode": 4
        }
      ]
    },
    {
      "name": "Cube.002_Material.001_0",
      "primitives": [
        {
          "attributes": {
            "NORMAL": 29,
            "POSITION": 28,
            "TEXCOORD_0": 30
          },
          "indices": 31,
          "material": 0,
          "mode": 4
        }
      ]
    }
  ],
  "nodes": [
    {
      "children": [
        1
      ],
      "matrix": [
        1.0,
        0.0,
        0.0,
        0.0,
        0.0,
        2.220446049250313e-16,
        -1.0,
        0.0,
        0.0,
        1.0,
        2.220446049250313e-16,
        0.0,
        0.0,
        0.0,
        0.0,
        1.0
      ],
      "name": "Sketchfab_model"
    },
    {
      "children": [
        2
      ],
      "matrix": [
        1.0,
        0.0,
        0.0,
        0.0,
        0.0,
        0.0,
        1.0,
        0.0,
        0.0,
        -1.0,
        0.0,
        0.0,
        0.0,
        0.0,
        0.0,
        1.0
      ],
      "name": "Export3.fbx"
    },
    {
      "children": [
        3,
        5,
        7,
        9,
        11,
        13,
        15,
        17
      ],
      "name": "RootNode"
    },
    {
      "children": [
        4
      ],
      "matrix": [
        -99.99999999999241,
        1.2246465878873718e-14,
        3.8941437775530106e-05,
        0.0,
        3.894143777553e-05,
        7.549789982075339e-06,
        99.99999999999213,
        0.0,
        -2.9277502948264183e-12,
        99.9999999999997,
        -7.549789970973109e-06,
        0.0,
        -170.5817413330078,
        0.02868175506591797,
        -0.20818710327148438,
        1.0
      ],
      "name": "Cube.008"
    },
    {
      "mesh": 0,
      "name": "Cube.008_Material.001_0"
    },
    {
      "children": [
        6
      ],
      "matrix": [
        -99.99999999999241,
        1.2246465878873718e-14,
        3.8941437775530106e-05,
        0.0,
        3.894143777553e-05,
        7.549789982075339e-06,
        99.99999999999213,
        0.0,
        -2.9277502948264183e-12,
        99.9999999999997,
        -7.549789970973109e-06,
        0.0,
        -53.08441925048828,
        0.02868175506591797,
        -145.8170623779297,
        1.0
      ],
      "name": "Cube.007"
    },
    {
      "mesh": 1,
      "name": "Cube.007_Material.001_0"
    },
    {
      "children": [
        8
      ],
      "matrix": [
        -99.99999999999241,
        1.2246465878873718e-14,
        3.8941437775530106e-05,
        0.0,
        3.894143777553e-05,
        7.549789982075339e-06,
        99.99999999999213,
        0.0,
        -2.9277502948264183e-12,
        99.9999999999997,
        -7.549789970973109e-06,
        0.0,
        -170.2817840576172,
        0.02868175506591797,
        -146.62477111816406,
        1.0
      ],
      "name": "Cube.004"
    },
    {
      "mesh": 2,
      "name": "Cube.004_Material.001_0"
    },
    {
      "children": [
        10
      ],
      "matrix": [
        25.254377592749666,
        19.394053661995322,
        -32.51782352716303,
        0.0,
        -35.94477603114271,
        -1.3038698114293146e-06,
        -27.915858849112002,
        0.0,
        -11.89585981638662,
        41.17271813610962,
        15.317241909883963,
        0.0,
        -486.2760925292969,
        107.4300308227539,
        151.13941955566406,
        1.0
      ],
      "name": "Cube.011"
    },
    {
      "mesh": 3,
      "name": "Cube.011_Material_0"
    },
    {
      "children": [
        12
      ],
      "matrix": [
        -1.636326796237041,
        40.387256956814895,
        -20.9168355477754,
        0.0,
        -45.308078274934836,
        0.38305981859618443,
        4.284087699885676,
        0.0,
        3.977760281974182,
        20.977245765165193,
        40.19271927177315,
        0.0,
        -235.5083465576172,
        90.4402847290039,
        199.67881774902344,
        1.0
      ],
      "name": "Cube.010"
    },
    {
      "mesh": 4,
      "name": "Cube.010_Material_0"
    },
    {
      "children": [
        14
      ],
      "matrix": [
        -92.96465490707384,
        -51.63787527405218,
        42.96080723336171,
        0.0,
        38.03541916103576,
        19.994530068660577,
        106.33935814066155,
        0.0,
        -55.36613213517076,
        100.44041490867873,
        0.9179587764397668,
        0.0,
        -283.7776794433594,
        107.04689025878906,
        127.39543914794922,
        1.0
      ],
      "name": "Circle.000"
    },
    {
      "mesh": 5,
      "name": "Circle.000_Material.007_0"
    },
    {
      "children": [
        16
      ],
      "matrix": [
        100.0,
        0.0,
        0.0,
        0.0,
        0.0,
        -1.629206793918314e-05,
        -99.99999999999868,
        0.0,
        0.0,
        70.05249023437408,
        -1.141299930207401e-05,
        0.0,
        61.53669357299805,
        23.437681198120117,
        -1.3044953346252441,
        1.0
      ],
      "name": "Cube.036"
    },
    {
      "mesh": 6,
      "name": "Cube.036_Material.001_0"
    },
    {
      "children": [
        18
      ],
      "matrix": [
        100.0,
        0.0,
        0.0,
        0.0,
        -0.0,
        -1.629206793918314e-05,
        -99.99999999999868,
        0.0,
        0.0,
        99.99999999999868,
        -1.629206793918314e-05,
        0.0,
        -327.9936218261719,
        52.81613540649414,
        9.836380958557129,
        1.0
      ],
      "name": "Cube.002"
    },
    {
      "mesh": 7,
      "name": "Cube.002_Material.001_0"
    }
  ],
  "samplers": [
    {
      "magFilter": 9729,
      "minFilter": 9987,
      "wrapS": 10497,
      "wrapT": 10497
    }
  ],
  "scene": 0,
  "scenes": [
    {
      "name": "Sketchfab_Scene",
      "nodes": [
        0
      ]
    }
  ],
  "textures": [
    {
      "sampler": 0,
      "source": 0
    },
    {
      "sampler": 0,
      "source": 1
    },
    {
      "sampler": 0,
      "source": 2
    }
  ]
}
